<svg id="visual" viewBox="0 0 900 600" width="900" height="600" xmlns="http://www.w3.org/2000/svg" xmlns:xlink="http://www.w3.org/1999/xlink" version="1.1"><rect x="0" y="0" width="900" height="600" fill="#FFFFFF"></rect><path d="M0 516L21.5 510.8C43 505.7 86 495.3 128.8 487.8C171.7 480.3 214.3 475.7 257.2 479.7C300 483.7 343 496.3 385.8 497.7C428.7 499 471.3 489 514.2 489C557 489 600 499 642.8 496.7C685.7 494.3 728.3 479.7 771.2 474.5C814 469.3 857 473.7 878.5 475.8L900 478L900 601L878.5 601C857 601 814 601 771.2 601C728.3 601 685.7 601 642.8 601C600 601 557 601 514.2 601C471.3 601 428.7 601 385.8 601C343 601 300 601 257.2 601C214.3 601 171.7 601 128.8 601C86 601 43 601 21.5 601L0 601Z" fill="#86aae1" stroke-linecap="round" stroke-linejoin="miter"></path></svg>